<?xml version="1.0" standalone="no"?>
<!DOCTYPE svg PUBLIC "-//W3C//DTD SVG 20010904//EN"
 "http://www.w3.org/TR/2001/REC-SVG-20010904/DTD/svg10.dtd">
<svg version="1.0" xmlns="http://www.w3.org/2000/svg"
 width="512.000000pt" height="512.000000pt" viewBox="0 0 512.000000 512.000000"
 preserveAspectRatio="xMidYMid meet">
<metadata>
Created by potrace 1.11, written by Peter Selinger 2001-2013
</metadata>
<g transform="translate(0.000000,512.000000) scale(0.100000,-0.100000)"
fill="#000000" stroke="none">
<path d="M2486 5093 c-14 -14 -29 -36 -32 -48 -3 -11 -4 -116 -2 -233 l3 -212
28 -27 c23 -23 36 -28 78 -28 45 0 54 4 80 33 l29 32 0 218 c0 189 -2 221 -17
242 -27 40 -45 49 -94 50 -37 0 -52 -5 -73 -27z"/>
<path d="M1024 4499 c-56 -16 -88 -75 -73 -134 6 -20 61 -82 162 -183 148
-147 155 -152 195 -152 32 0 49 7 77 31 30 27 35 37 35 77 0 45 -1 46 -147
195 -121 122 -195 183 -215 176 -2 0 -17 -5 -34 -10z"/>
<path d="M4025 4495 c-16 -7 -96 -80 -177 -162 -147 -149 -148 -150 -148 -195
0 -40 5 -50 35 -77 28 -24 45 -31 77 -31 40 0 47 5 195 153 99 98 156 163 162
182 24 85 -65 165 -144 130z"/>
<path d="M2395 4350 c-607 -73 -1106 -507 -1264 -1100 -33 -128 -44 -220 -44
-367 2 -259 54 -474 168 -691 79 -149 152 -239 346 -432 188 -187 238 -248
303 -377 57 -111 76 -177 76 -259 l0 -72 -34 -12 c-90 -29 -109 -142 -35 -205
17 -14 39 -25 50 -25 17 0 19 -8 19 -65 0 -54 -3 -67 -17 -71 -68 -22 -96 -58
-96 -122 0 -53 27 -93 74 -108 31 -11 35 -16 42 -65 14 -97 84 -161 183 -167
62 -4 62 -4 93 -53 35 -53 82 -94 151 -130 39 -21 59 -24 150 -24 91 0 111 3
150 24 69 36 116 77 151 130 l31 49 66 4 c111 7 181 71 190 175 4 42 8 53 22
53 49 0 96 79 83 142 -7 35 -57 88 -84 88 -17 0 -19 7 -19 68 0 65 1 67 32 82
95 45 96 177 2 216 l-34 14 0 74 c0 82 17 141 75 256 70 139 126 211 305 390
178 177 253 271 328 410 136 251 195 532 171 816 -16 200 -54 343 -138 520
-206 432 -606 737 -1071 819 -113 19 -327 27 -425 15z"/>
<path d="M385 2988 c-51 -28 -70 -94 -44 -152 23 -49 58 -56 282 -56 196 0
205 1 238 23 65 43 62 137 -5 178 -28 17 -53 19 -241 19 -133 -1 -217 -5 -230
-12z"/>
<path d="M4248 2971 c-29 -26 -33 -35 -33 -80 0 -42 5 -55 28 -78 l27 -28 230
0 229 0 30 29 c50 48 40 134 -19 169 -24 14 -60 17 -244 17 l-216 0 -32 -29z"/>
<path d="M1113 1598 c-154 -153 -175 -183 -165 -236 3 -13 18 -36 34 -52 24
-25 38 -30 76 -30 l47 0 157 158 c150 151 158 161 158 198 0 69 -42 113 -109
114 -44 0 -46 -2 -198 -152z"/>
<path d="M3731 1719 c-26 -25 -31 -38 -31 -77 l0 -46 158 -158 158 -158 46 0
c55 0 94 27 107 75 15 58 -2 84 -162 243 -153 152 -154 152 -199 152 -38 0
-52 -5 -77 -31z"/>
</g>
</svg>
